<svg width="800" height="800" viewBox="0 0 800 800" fill="none" xmlns="http://www.w3.org/2000/svg">
  <rect width="800" height="800" rx="48" fill="#F7F8FB"/>
  <rect x="120" y="140" width="560" height="520" rx="40" fill="#FFFFFF" stroke="#D7E1F0" stroke-width="4"/>
  <path d="M400 210C455 210 500 255 500 310C500 365 455 410 400 410C345 410 300 365 300 310C300 255 345 210 400 210Z" fill="#EEF2F8"/>
  <path d="M220 610C255 520 320 470 400 470C480 470 545 520 580 610" stroke="#D7E1F0" stroke-width="18" stroke-linecap="round"/>
  <g opacity="0.95">
    <path d="M400 320L400 560" stroke="#1F3A5F" stroke-width="20" stroke-linecap="round"/>
    <path d="M290 360H510" stroke="#1F3A5F" stroke-width="20" stroke-linecap="round"/>
    <path d="M330 360L300 430" stroke="#1F3A5F" stroke-width="16" stroke-linecap="round"/>
    <path d="M470 360L500 430" stroke="#1F3A5F" stroke-width="16" stroke-linecap="round"/>
    <path d="M280 430H320" stroke="#C6A15B" stroke-width="14" stroke-linecap="round"/>
    <path d="M480 430H520" stroke="#C6A15B" stroke-width="14" stroke-linecap="round"/>
  </g>
  <path d="M260 640H540" stroke="#1F3A5F" stroke-width="18" stroke-linecap="round" opacity="0.9"/>
</svg>
